<?xml version="1.0" standalone="no"?>
<!DOCTYPE svg PUBLIC "-//W3C//DTD SVG 20010904//EN"
 "http://www.w3.org/TR/2001/REC-SVG-20010904/DTD/svg10.dtd">
<svg version="1.0" xmlns="http://www.w3.org/2000/svg"
 width="250.000000pt" height="231.000000pt" viewBox="0 0 250.000000 231.000000"
 preserveAspectRatio="xMidYMid meet">

<g transform="translate(0.000000,231.000000) scale(0.100000,-0.100000)"
fill="#000000" stroke="none">
<path d="M1130 2171 c11 -8 8 -12 -15 -21 -16 -6 -41 -9 -55 -5 -23 5 -24 4
-7 -9 25 -19 3 -26 -41 -12 -29 8 -31 11 -16 18 14 6 11 7 -10 4 -16 -2 -38 1
-47 7 -10 6 -21 9 -24 6 -9 -9 15 -67 31 -73 7 -3 21 -23 30 -46 9 -22 22 -40
29 -40 7 0 16 -11 19 -25 4 -14 13 -25 21 -25 8 0 15 -8 15 -19 0 -10 15 -30
33 -44 l34 -26 24 25 c13 13 33 33 43 44 23 23 36 26 36 8 0 -9 3 -9 9 1 8 12
12 12 25 2 24 -20 19 -32 -9 -25 -33 8 -59 -15 -81 -72 -9 -24 -21 -44 -26
-44 -5 0 -8 -6 -7 -12 3 -17 -10 -68 -21 -90 -8 -15 -3 -17 43 -20 28 -2 51
-7 50 -13 -2 -5 -9 -10 -15 -10 -7 0 -21 -10 -31 -23 -10 -12 -23 -20 -28 -17
-14 9 -11 -31 5 -69 9 -22 23 -36 40 -40 22 -5 39 -28 19 -25 -5 1 -18 -2 -30
-6 -44 -14 -18 -106 38 -138 30 -17 31 -18 13 -32 -10 -8 -25 -15 -31 -15 -33
-1 -2 -95 35 -109 15 -5 21 -10 15 -10 -7 -1 -14 -11 -14 -23 -1 -17 -2 -19
-6 -5 -5 18 -23 24 -23 6 0 -20 21 -49 35 -49 21 0 19 -12 -5 -33 -25 -21 -25
-34 0 -42 22 -7 23 -10 10 -40 -5 -11 -9 -14 -9 -7 -1 7 -5 10 -11 7 -16 -10
-12 -23 9 -30 11 -3 19 -14 18 -25 -1 -14 -4 -16 -14 -8 -16 13 -17 0 -3 -38
7 -18 14 -24 21 -17 12 12 15 96 4 113 -5 9 -4 11 3 6 9 -5 11 17 8 84 -3 53
-1 88 5 84 5 -3 9 4 9 14 0 11 7 33 15 48 19 36 19 75 1 99 -12 16 -11 21 5
34 10 9 22 34 28 56 9 32 8 44 -5 63 -15 22 -14 25 5 43 39 36 21 129 -24 129
-8 0 -17 -5 -21 -11 -4 -8 -9 -7 -15 2 -17 26 -9 30 54 25 62 -6 62 -6 20 7
-54 16 -54 17 -43 59 6 21 7 59 2 95 -6 44 -5 62 4 71 17 16 24 15 24 -3 0 -8
6 -15 13 -16 6 0 3 -4 -7 -8 -18 -7 -18 -8 3 -28 21 -20 71 -21 71 -2 0 5 16
23 35 40 19 18 35 37 35 43 0 6 9 17 20 24 29 18 25 29 -15 36 -19 4 -35 11
-35 15 0 13 -93 121 -104 121 -6 0 -5 -5 1 -11 7 -7 10 -26 8 -43 -4 -28 -4
-29 4 -6 5 14 9 19 10 13 1 -7 7 -13 14 -13 8 0 22 -9 33 -21 15 -17 16 -22 4
-29 -8 -5 -11 -12 -7 -17 5 -4 13 -1 18 7 9 12 10 12 5 -2 -3 -11 3 -23 17
-33 12 -8 16 -15 9 -15 -7 0 -10 -4 -7 -10 3 -6 -1 -7 -9 -4 -19 7 -21 -7 -4
-24 9 -9 8 -12 -5 -12 -18 0 -56 55 -75 105 -6 19 -11 23 -11 12 -1 -10 -6
-15 -11 -12 -6 4 -10 12 -9 18 3 25 -2 33 -21 33 -21 0 -29 -26 -7 -27 6 0 23
-14 37 -32 14 -17 20 -28 14 -24 -6 3 -21 -3 -33 -14 -26 -24 -40 -18 -20 8
13 16 12 17 -3 5 -19 -15 -42 -7 -71 26 -14 15 -19 40 -21 92 -2 39 -7 75 -12
79 -5 5 -25 11 -44 15 -24 4 -30 3 -20 -3z m50 -20 c0 -12 -39 -25 -47 -17 -4
3 1 6 10 6 10 0 17 5 17 10 0 6 5 10 10 10 6 0 10 -4 10 -9z m-137 -151 c-3
-12 -8 -19 -11 -16 -5 6 5 36 12 36 2 0 2 -9 -1 -20z m92 -15 c-11 -5 -29 -20
-42 -32 -13 -12 -23 -18 -23 -13 0 5 7 15 16 22 9 7 26 22 37 33 12 11 24 16
26 10 2 -5 -4 -14 -14 -20z m15 -60 c-18 -19 -36 -32 -39 -30 -6 7 50 65 63
65 5 0 -5 -16 -24 -35z m270 -58 c0 -21 -27 3 -48 44 l-24 44 36 -40 c20 -22
36 -44 36 -48z m-88 51 c-7 -7 -12 -8 -12 -2 0 6 3 14 7 17 3 4 9 5 12 2 2 -3
-1 -11 -7 -17z m49 -60 c5 -10 6 -18 1 -18 -4 0 -16 17 -25 38 -15 31 -15 34
-1 17 8 -11 20 -28 25 -37z m-151 -282 c0 -19 6 -37 13 -40 6 -3 -1 -2 -18 1
-57 12 -78 73 -25 73 27 0 30 -3 30 -34z m110 0 c0 -33 -13 -45 -45 -42 -26 3
-30 8 -30 32 0 22 6 30 25 34 35 9 50 2 50 -24z m-193 2 c-3 -8 -6 -5 -6 6 -1
11 2 17 5 13 3 -3 4 -12 1 -19z m63 -110 c0 6 5 12 10 12 6 0 10 -22 10 -48 0
-26 6 -54 13 -61 10 -11 9 -13 -3 -9 -18 5 -35 40 -44 88 -4 25 -3 31 4 20 6
-10 10 -11 10 -2z m75 -25 c6 -25 8 -26 14 -9 7 18 8 18 14 2 8 -20 -11 -67
-29 -73 -13 -4 -24 28 -24 75 0 39 15 42 25 5z m-118 -25 c-3 -8 -6 -5 -6 6
-1 11 2 17 5 13 3 -3 4 -12 1 -19z m119 -187 c-14 -13 -16 -13 -21 1 -4 9 -1
27 6 39 l12 23 9 -24 c6 -17 5 -28 -6 -39z m-89 17 c-3 -8 -6 -5 -6 6 -1 11 2
17 5 13 3 -3 4 -12 1 -19z m53 -28 c0 -5 -4 -10 -10 -10 -5 0 -10 5 -10 10 0
6 5 10 10 10 6 0 10 -4 10 -10z"/>
<path d="M1290 2076 c-9 -12 -8 -15 8 -13 12 0 18 6 15 14 -6 16 -8 16 -23 -1z"/>
<path d="M1370 2006 c0 -8 4 -17 8 -20 4 -2 8 4 8 15 0 10 -4 19 -8 19 -4 0
-8 -6 -8 -14z"/>
<path d="M720 1937 c-19 -23 -27 -36 -17 -28 16 12 17 10 17 -29 0 -41 1 -42
30 -38 16 2 32 0 34 -6 2 -6 5 11 5 37 1 34 4 46 13 41 6 -4 -1 9 -16 29 -16
20 -29 37 -30 36 0 0 -17 -19 -36 -42z"/>
<path d="M1704 1964 c3 -8 2 -13 -3 -10 -4 3 -19 -6 -32 -21 -13 -14 -19 -23
-12 -19 8 4 13 -5 15 -31 3 -33 6 -37 36 -40 32 -4 32 -4 32 38 0 38 2 40 17
28 10 -8 2 5 -17 29 -35 44 -46 52 -36 26z"/>
<path d="M1398 1948 c12 -12 25 -19 28 -15 4 4 -1 14 -12 22 -29 22 -41 18
-16 -7z"/>
<path d="M583 1817 c-15 -17 -19 -32 -15 -67 4 -46 4 -46 38 -42 31 4 34 7 34
39 0 22 4 32 11 27 17 -10 -5 28 -28 49 -19 16 -20 16 -40 -6z"/>
<path d="M1826 1811 c-17 -17 -24 -31 -18 -31 7 0 12 -15 12 -37 0 -37 1 -38
34 -38 33 0 34 1 38 45 3 33 -1 50 -17 68 l-20 23 -29 -30z"/>
<path d="M1344 1787 c3 -10 6 -41 6 -68 0 -28 4 -48 9 -45 10 7 2 95 -11 116
-8 12 -8 11 -4 -3z"/>
<path d="M720 1718 c0 -25 3 -28 35 -28 32 0 35 3 35 28 0 24 -3 27 -35 27
-32 0 -35 -3 -35 -27z"/>
<path d="M1703 1743 c-27 -4 -33 -9 -33 -29 0 -21 5 -24 35 -24 32 0 35 2 35
30 0 17 -1 29 -2 28 -2 0 -18 -3 -35 -5z"/>
<path d="M433 1667 c-27 -29 -40 -52 -25 -43 8 5 12 -5 12 -34 0 -40 0 -41 33
-37 30 3 32 6 32 40 0 29 3 36 15 31 8 -3 1 10 -15 28 -17 18 -30 34 -31 35 0
2 -10 -7 -21 -20z"/>
<path d="M1980 1655 c-13 -14 -18 -25 -12 -25 7 0 12 -18 13 -47 0 -27 3 -43
5 -37 3 6 16 9 29 6 26 -5 30 3 25 57 -1 19 2 23 17 17 12 -5 9 2 -11 23 -17
17 -33 31 -36 31 -4 0 -17 -11 -30 -25z"/>
<path d="M570 1583 c0 -20 5 -23 35 -23 28 0 35 4 35 19 0 14 -9 20 -35 23
-31 4 -35 1 -35 -19z"/>
<path d="M1820 1583 c0 -20 5 -23 35 -23 30 0 35 3 35 23 0 19 -5 22 -35 22
-30 0 -35 -3 -35 -22z"/>
<path d="M226 1565 c-17 -13 -30 -75 -15 -75 16 0 37 29 41 58 5 36 2 38 -26
17z"/>
<path d="M2158 1563 c-9 -10 -18 -32 -20 -50 l-4 -32 28 17 c22 13 28 24 28
49 0 37 -10 41 -32 16z"/>
<path d="M290 1526 c0 -19 5 -38 10 -41 6 -4 10 8 10 29 0 19 -4 38 -10 41 -6
4 -10 -8 -10 -29z"/>
<path d="M2233 1515 c0 -22 2 -30 4 -17 2 12 2 30 0 40 -3 9 -5 -1 -4 -23z"/>
<path d="M222 1464 c-14 -10 -22 -25 -22 -45 l0 -30 30 16 c23 12 30 22 30 45
0 34 -6 36 -38 14z"/>
<path d="M2157 1466 c-13 -10 -17 -24 -15 -45 3 -31 4 -31 26 -16 14 11 22 26
22 46 0 32 -6 35 -33 15z"/>
<path d="M303 1425 c0 -22 2 -30 4 -17 2 12 2 30 0 40 -3 9 -5 -1 -4 -23z"/>
<path d="M1980 1428 c0 -26 3 -28 36 -28 29 0 35 3 30 16 -3 9 -6 19 -6 24 0
4 -13 10 -30 12 -27 4 -30 2 -30 -24z"/>
<path d="M2230 1426 c0 -19 5 -38 10 -41 6 -4 10 8 10 29 0 19 -4 38 -10 41
-6 4 -10 -8 -10 -29z"/>
<path d="M420 1426 c0 -23 4 -26 36 -26 31 0 35 3 32 23 -2 17 -11 23 -35 25
-30 3 -33 1 -33 -22z"/>
<path d="M226 1369 c-18 -14 -26 -30 -26 -50 0 -29 1 -29 26 -16 21 11 27 22
28 51 1 20 0 36 0 36 -1 0 -13 -9 -28 -21z"/>
<path d="M2162 1371 c-18 -13 -23 -25 -20 -50 l3 -33 23 19 c18 14 23 27 20
50 -3 32 -3 32 -26 14z"/>
<path d="M290 1331 c0 -17 5 -33 10 -36 6 -4 10 8 10 29 0 20 -4 36 -10 36 -5
0 -10 -13 -10 -29z"/>
<path d="M2230 1331 c0 -17 5 -33 10 -36 6 -4 10 8 10 29 0 20 -4 36 -10 36
-5 0 -10 -13 -10 -29z"/>
<path d="M226 1269 c-17 -14 -26 -30 -26 -50 l0 -30 30 16 c25 13 30 22 30 50
0 19 -2 35 -4 35 -2 0 -15 -9 -30 -21z"/>
<path d="M2157 1266 c-13 -10 -17 -24 -15 -45 3 -31 4 -31 26 -16 14 11 22 26
22 46 0 32 -6 35 -33 15z"/>
<path d="M303 1225 c0 -22 2 -30 4 -17 2 12 2 30 0 40 -3 9 -5 -1 -4 -23z"/>
<path d="M2230 1226 c0 -19 5 -38 10 -41 6 -4 10 8 10 29 0 19 -4 38 -10 41
-6 4 -10 -8 -10 -29z"/>
<path d="M222 1164 c-21 -14 -33 -74 -14 -74 23 0 52 34 52 61 0 33 -6 35 -38
13z"/>
<path d="M2157 1162 c-17 -19 -24 -72 -9 -72 21 1 42 30 42 59 0 35 -10 39
-33 13z"/>
<path d="M2230 1126 c0 -19 5 -38 10 -41 6 -4 10 8 10 29 0 19 -4 38 -10 41
-6 4 -10 -8 -10 -29z"/>
<path d="M303 1115 c0 -22 2 -30 4 -17 2 12 2 30 0 40 -3 9 -5 -1 -4 -23z"/>
<path d="M1739 787 c-19 -12 -45 -44 -59 -72 -22 -43 -25 -63 -25 -150 0 -85
4 -107 24 -148 29 -60 70 -87 133 -87 95 0 158 99 158 248 0 178 -118 284
-231 209z m141 -55 c33 -34 50 -87 50 -162 0 -112 -42 -185 -112 -197 -33 -5
-41 -2 -72 29 -39 39 -56 90 -56 168 0 74 15 122 49 159 40 43 100 44 141 3z"/>
<path d="M916 708 c-82 -274 -106 -354 -106 -365 0 -7 9 -13 19 -13 15 0 22
14 36 70 l17 71 76 -3 c84 -3 76 4 102 -95 8 -32 16 -43 30 -43 11 0 20 3 20
6 0 6 -77 282 -111 397 -29 98 -47 93 -83 -25z m104 -190 c0 -5 -27 -8 -60 -8
-33 0 -60 3 -60 8 0 8 48 187 56 212 4 12 62 -181 64 -212z"/>
<path d="M1150 645 c0 -183 11 -248 50 -287 23 -23 37 -28 77 -28 56 0 85 17
110 63 15 26 18 66 21 220 4 184 4 187 -17 187 -21 0 -21 -4 -21 -177 0 -159
-2 -181 -20 -210 -23 -38 -59 -50 -98 -34 -52 22 -57 40 -60 239 -3 172 -5
182 -23 182 -18 0 -19 -9 -19 -155z"/>
<path d="M1538 606 c-3 -176 -5 -196 -23 -216 -13 -15 -26 -19 -43 -15 -20 5
-23 2 -20 -17 5 -34 64 -32 90 3 30 40 38 92 38 272 0 159 -1 167 -19 167 -19
0 -20 -10 -23 -194z"/>
<path d="M502 638 c-29 -116 -7 -215 62 -276 31 -27 44 -32 89 -32 34 0 63 7
85 20 l33 20 -3 103 -3 102 -55 0 c-49 0 -55 -2 -58 -22 -3 -21 1 -23 37 -23
l41 0 0 -69 0 -69 -35 -12 c-65 -21 -112 3 -149 78 -19 36 -26 148 -13 197 5
19 4 25 -1 16 -8 -11 -10 -11 -14 0 -2 7 -10 -8 -16 -33z"/>
</g>
</svg>
