<?xml version="1.0" standalone="no"?>
<!DOCTYPE svg PUBLIC "-//W3C//DTD SVG 20010904//EN"
 "http://www.w3.org/TR/2001/REC-SVG-20010904/DTD/svg10.dtd">
<svg version="1.0" xmlns="http://www.w3.org/2000/svg"
 width="325.000000pt" height="325.000000pt" viewBox="0 0 325.000000 325.000000"
 preserveAspectRatio="xMidYMid meet">

<g transform="translate(0.000000,325.000000) scale(0.100000,-0.100000)"
fill="#000000" stroke="none">
<path d="M2109 2697 l-45 -94 75 -154 c147 -301 261 -539 261 -544 0 -3 -74
-5 -165 -5 l-165 0 -45 -90 -45 -90 255 0 255 0 85 -175 85 -175 100 0 c93 0
100 1 92 18 -5 9 -24 49 -42 87 -29 62 -174 357 -452 923 -52 106 -94 180
-100 176 -6 -4 -8 1 -4 13 4 12 1 25 -9 33 -8 7 -12 16 -9 21 3 5 0 9 -5 9 -6
0 -11 7 -11 15 0 25 -33 84 -43 78 -6 -3 -7 -1 -4 5 8 11 -1 42 -12 42 -4 0
-27 -42 -52 -93z"/>
<path d="M1180 2040 l0 -90 270 0 c149 0 270 -3 270 -6 0 -4 -66 -134 -146
-291 l-146 -284 102 3 102 3 189 375 c104 206 189 376 189 378 0 1 -187 2
-415 2 l-415 0 0 -90z"/>
<path d="M443 2013 c29 -362 342 -642 719 -643 l98 0 51 101 c27 56 48 103 45
106 -3 3 -19 0 -37 -6 -46 -16 -264 -14 -320 3 -86 26 -154 68 -224 140 -96
97 -155 221 -155 329 l0 47 -91 0 -92 0 6 -77z"/>
<path d="M470 819 l0 -150 28 3 c24 3 27 7 30 46 l3 42 50 0 c76 0 112 25 123
86 9 43 -11 92 -45 109 -18 10 -57 15 -109 15 l-80 0 0 -151z m162 84 c43 -39
6 -93 -64 -93 l-38 0 0 55 0 55 42 0 c24 0 49 -7 60 -17z"/>
<path d="M772 823 l3 -148 27 -3 c26 -3 27 -1 30 45 3 44 5 48 30 51 22 3 33
-6 64 -47 30 -40 44 -51 66 -51 35 0 35 7 -2 58 l-29 41 29 30 c42 41 42 100
1 142 -28 28 -33 29 -125 29 l-97 0 3 -147z m176 85 c7 -7 12 -24 12 -38 0
-38 -18 -50 -77 -50 l-53 0 0 50 0 50 53 0 c29 0 58 -5 65 -12z"/>
<path d="M1092 823 l3 -148 113 -3 113 -3 -3 28 c-3 28 -4 28 -85 31 l-83 3 0
34 0 35 75 0 c73 0 75 1 75 25 0 24 -2 25 -75 25 l-75 0 0 35 0 35 85 0 c84 0
85 0 85 25 l0 25 -115 0 -116 0 3 -147z"/>
<path d="M1390 820 l0 -150 25 0 c25 0 25 0 25 95 0 52 4 95 8 95 5 0 23 -31
42 -70 45 -93 64 -94 108 -5 17 36 36 65 42 65 6 0 10 -25 9 -62 -2 -116 -2
-118 26 -118 l25 0 0 150 0 150 -33 0 c-32 0 -36 -4 -77 -85 -48 -97 -42 -98
-101 17 -31 63 -36 68 -66 68 l-33 0 0 -150z"/>
<path d="M1792 823 l3 -148 28 -3 27 -3 0 150 0 151 -30 0 -31 0 3 -147z"/>
<path d="M1931 883 c1 -161 33 -208 139 -208 99 0 130 47 130 200 l0 95 -30 0
-30 0 0 -100 c0 -94 -2 -103 -25 -125 -38 -39 -86 -30 -113 22 -7 12 -12 62
-12 112 l0 91 -30 0 -30 0 1 -87z"/>
<path d="M2282 823 l3 -148 27 -3 27 -3 3 98 3 98 36 -70 c50 -98 67 -98 116
-3 l38 73 5 -95 c5 -93 5 -95 30 -95 l25 0 3 148 3 148 -37 -3 c-34 -3 -38 -8
-77 -80 -23 -43 -45 -78 -49 -78 -4 0 -26 36 -48 80 -39 77 -41 80 -75 80
l-36 0 3 -147z"/>
<path d="M875 538 c-29 -16 -35 -28 -35 -69 0 -61 58 -97 111 -69 32 18 22 32
-16 24 -62 -11 -98 42 -55 81 14 12 28 16 49 12 36 -7 50 8 22 22 -25 14 -51
13 -76 -1z"/>
<path d="M1026 529 c-20 -16 -26 -29 -26 -59 0 -30 6 -43 26 -59 15 -12 37
-21 49 -21 12 0 34 9 49 21 20 16 26 29 26 59 0 30 -6 43 -26 59 -15 12 -37
21 -49 21 -12 0 -34 -9 -49 -21z m90 -34 c15 -23 15 -27 0 -50 -29 -44 -86
-28 -86 25 0 53 57 69 86 25z"/>
<path d="M1194 536 c-10 -26 1 -139 14 -144 8 -2 12 11 12 49 l0 54 46 -53
c28 -32 50 -50 56 -44 13 13 6 145 -9 149 -8 3 -13 -13 -15 -49 l-3 -53 -38
53 c-40 53 -54 62 -63 38z"/>
<path d="M1386 531 c-25 -27 -13 -54 29 -70 20 -7 35 -19 35 -28 0 -13 -8 -14
-41 -9 -47 8 -51 -12 -6 -28 37 -13 77 6 77 38 0 28 -14 42 -53 51 -27 7 -36
28 -17 40 5 3 19 1 30 -5 28 -15 49 -1 25 17 -27 19 -59 16 -79 -6z"/>
<path d="M1520 491 c0 -48 4 -65 20 -81 26 -26 60 -25 88 0 18 17 22 32 22 81
0 81 -23 76 -30 -7 -5 -58 -6 -59 -35 -59 -29 0 -30 1 -35 59 -7 83 -30 88
-30 7z"/>
<path d="M1700 470 l0 -81 52 3 c63 4 80 28 19 28 l-40 0 -3 62 c-2 38 -8 63
-15 66 -10 3 -13 -17 -13 -78z"/>
<path d="M1817 544 c-14 -14 -7 -24 18 -24 24 0 25 -2 25 -65 0 -51 3 -65 15
-65 12 0 15 14 15 64 0 57 2 65 20 68 12 2 21 8 21 13 -1 12 -103 19 -114 9z"/>
<path d="M1974 536 c-10 -26 1 -139 14 -144 9 -3 12 17 12 77 0 49 -4 81 -10
81 -6 0 -13 -6 -16 -14z"/>
<path d="M2054 536 c-3 -7 -4 -42 -2 -76 4 -81 26 -94 30 -19 l3 53 40 -52
c56 -74 67 -69 63 25 -4 92 -25 115 -30 31 l-3 -53 -38 53 c-40 53 -54 62 -63
38z"/>
<path d="M2256 529 c-56 -44 -20 -140 53 -139 38 1 61 23 61 59 0 29 -2 31
-35 31 -38 0 -48 -19 -15 -27 26 -7 20 -27 -9 -31 -30 -5 -51 15 -51 48 0 34
21 52 57 50 44 -3 49 0 29 15 -27 21 -59 19 -90 -6z"/>
</g>
</svg>
